# xmcd CD database file
#
# Track frame offsets:
#	150
#	14473
#	28860
#	38776
#
# Disc length: 647 seconds
#
# Revision: 0
# Processed by: cddbd v1.5.2PL0 Copyright (c) Steve Scherf et al.
# Submitted via: CDex 1.51
#
DISCID=2a028504
DTITLE=DUO George Breinschmid Thomas Gansch - Demo-CD
DYEAR=1900
DGENRE=Jazz
TTITLE0=Trompetenpolka
TTITLE1=5/4
TTITLE2=Jacaranda
TTITLE3=Intermezzo
EXTD=
EXTT0=
EXTT1=
EXTT2=
EXTT3=
PLAYORDER=
